<svg xmlns="http://www.w3.org/2000/svg" viewBox="0 0 16 16"><title>32_24_20_16_px_12-06-2018</title><g id="_16x16_color" data-name="16x16 color"><path d="M8.00028,0A8.02365,8.02365,0,0,0,0,8L9.99918,10.3633Z" fill="#ed6c47"/><path d="M8,0V8.00018l3.99988,2.58954L16,8A8.02356,8.02356,0,0,0,8,0Z" fill="#ff8f6b"/><rect width="16" height="16" fill="none"/><path d="M15.99982,8.00036A7.99991,7.99991,0,0,1,0,8.00036Z" fill="#d35230"/><path d="M9.99976,4.00306H1.08582a7.93018,7.93018,0,0,0,1.64892,9.99658H8.99927a2.00046,2.00046,0,0,0,2.00049-2.00049V5.00306A1,1,0,0,0,9.99976,4.00306Z" opacity="0.5"/><path d="M9.99976,4.00306H1.08582a7.93018,7.93018,0,0,0,1.64892,9.99658H8.99927a2.00046,2.00046,0,0,0,2.00049-2.00049V5.00306A1,1,0,0,0,9.99976,4.00306Z" opacity="0.1"/><rect id="Back_Plate" data-name="Back Plate" y="3" width="10" height="10" rx="1.00004" ry="1.00004" fill="#c43e1c"/><path d="M5.33631,5a2.27649,2.27649,0,0,1,1.56058.48117,1.76645,1.76645,0,0,1,.54134,1.39331,2.01888,2.01888,0,0,1-.2677,1.04184,1.82725,1.82725,0,0,1-.76145.70927,2.475,2.475,0,0,1-1.14416.25307H4.18223V11H3.07178V5ZM4.18223,7.96234H5.138a1.19923,1.19923,0,0,0,.84474-.26562,1.00881,1.00881,0,0,0,.28554-.77622q0-.99163-1.09458-.99163H4.18223Z" fill="#fff"/></g></svg>